# xmcd
#
# Track frame offsets: 
#        150
#        11363
#        24169
#        33954
#        51560
#        61541
#        69224
#        84287
#        91892
#        106811
#        120242
#        129775
#        146075
#        158618
#        175302
#        183851
#        196384
#        209233
#        225410
#        252047
#        262092
#        273419
#        291870
#
# Disc length: 4074 seconds
#
# Revision: 0
# Processed by: cddbd v1.5.2PL0 Copyright (c) Steve Scherf et al.
# Submitted via: ExactAudioCopy v1.0b3
#
DISCID=2b0fe817
DTITLE=Richard Smerin - Sing Out! and Resonate
DYEAR=2015
DGENRE=Blues
TTITLE0=One Fine Day
TTITLE1=Why Can't You Leave Me Alone
TTITLE2=Sweet Talking Mama
TTITLE3=Warren Zevon Said It First
TTITLE4=Sub-Zero Termperatures
TTITLE5=Already Dead
TTITLE6=Ain't Got Furnished
TTITLE7=Kickin' The Can Down The Road
TTITLE8=Regrets
TTITLE9=Too Busy Covering
TTITLE10=Give Me Strength
TTITLE11=American Dream
TTITLE12=Goodbye From Him
TTITLE13=My Woman So Sweet
TTITLE14=West Coast Blues
TTITLE15=Hesitatoion Blues
TTITLE16=Come On In My Kitchen
TTITLE17=That'll Never Happen No More
TTITLE18=Bourgeois Blues
TTITLE19=Gonna Sit Down By The Bank Of The River
TTITLE20=Weeping Willow
TTITLE21=Tootie Blues
TTITLE22=Good Morning Schoolgirl
EXTD=
EXTT0=
EXTT1=
EXTT2=
EXTT3=
EXTT4=
EXTT5=
EXTT6=
EXTT7=
EXTT8=
EXTT9=
EXTT10=
EXTT11=
EXTT12=
EXTT13=
EXTT14=
EXTT15=
EXTT16=
EXTT17=
EXTT18=
EXTT19=
EXTT20=
EXTT21=
EXTT22=
PLAYORDER=
